<?xml version="1.0" standalone="no"?>
<!DOCTYPE svg PUBLIC "-//W3C//DTD SVG 20010904//EN"
 "http://www.w3.org/TR/2001/REC-SVG-20010904/DTD/svg10.dtd">
<svg version="1.0" xmlns="http://www.w3.org/2000/svg"
 width="500.000000pt" height="500.000000pt" viewBox="0 0 500.000000 500.000000"
 preserveAspectRatio="xMidYMid meet">

<g transform="translate(0.000000,500.000000) scale(0.100000,-0.100000)"
fill="#000000" stroke="none">
<path d="M2255 4492 c-22 -4 61 -7 185 -7 247 0 342 -12 540 -67 103 -28 243
-78 237 -84 -2 -2 -45 10 -96 27 -331 106 -785 120 -1122 34 -488 -125 -924
-435 -1168 -833 -18 -28 -35 -52 -38 -52 -13 0 119 198 189 282 28 35 99 110
157 168 58 57 84 86 56 63 -78 -64 -227 -220 -289 -302 -155 -202 -271 -440
-336 -685 -127 -479 -77 -948 151 -1405 192 -386 433 -651 788 -868 198 -121
495 -223 735 -253 109 -14 506 -7 571 9 l40 10 -45 -4 c-220 -23 -463 -14
-647 25 -107 22 -301 77 -323 92 -11 7 -10 8 5 3 70 -24 260 -66 354 -79 129
-18 423 -21 551 -6 456 55 871 257 1176 572 86 89 217 259 266 345 17 29 32
53 35 53 8 0 -56 -111 -105 -180 -101 -144 -211 -267 -342 -385 -38 -34 -47
-44 -20 -24 73 55 237 217 303 298 309 384 472 907 428 1381 -60 646 -420
1252 -941 1581 -207 131 -460 231 -700 276 -90 17 -518 27 -595 15z m375 -92
c228 -19 450 -81 665 -185 464 -225 810 -609 981 -1090 47 -131 58 -145 20
-25 -91 289 -231 527 -445 755 l-75 80 93 -90 c383 -371 568 -835 548 -1380
-11 -305 -78 -567 -213 -830 -67 -132 -74 -128 -10 5 53 111 128 318 140 390
4 19 -15 -30 -42 -110 -185 -548 -564 -954 -1107 -1187 -360 -154 -796 -179
-1180 -68 -207 60 -413 161 -597 291 -118 84 -349 317 -435 439 -118 168 -196
319 -263 510 -16 44 -29 75 -29 68 -2 -27 65 -206 119 -320 96 -202 203 -355
364 -522 81 -84 89 -95 40 -54 -82 70 -187 182 -261 278 -151 200 -240 387
-302 637 -103 411 -75 819 80 1209 46 116 163 338 191 364 6 5 -1 -10 -16 -35
-90 -150 -199 -408 -220 -520 -4 -19 10 12 29 70 104 303 276 574 502 790 273
261 601 428 988 504 164 33 277 39 435 26z m630 -80 c8 -5 11 -10 5 -10 -5 0
-17 5 -25 10 -8 5 -10 10 -5 10 6 0 17 -5 25 -10z m-1705 -138 c-6 -5 -48 -34
-95 -65 -528 -350 -854 -884 -910 -1492 -9 -89 -9 -89 -5 30 10 320 140 674
360 976 130 179 374 397 574 515 73 42 96 53 76 36z m-790 -732 c-9 -16 -18
-30 -21 -30 -2 0 2 14 11 30 9 17 18 30 21 30 2 0 -2 -13 -11 -30z m3692
-1107 c-7 -140 -37 -300 -78 -427 -65 -196 -197 -433 -337 -607 -126 -156
-345 -348 -509 -445 -62 -36 -53 -23 15 21 241 159 506 441 652 693 130 227
229 544 247 794 9 130 17 107 10 -29z m-327 -843 c-6 -11 -13 -20 -16 -20 -2
0 0 9 6 20 6 11 13 20 16 20 2 0 0 -9 -6 -20z"/>
<path d="M2842 3658 c-13 -7 -108 -131 -211 -277 -239 -339 -222 -308 -192
-332 19 -16 26 -17 39 -7 18 15 405 439 445 486 64 79 7 172 -81 130z m15 -35
c-19 -20 -30 -24 -38 -16 -8 8 -4 15 12 27 39 27 57 20 26 -11z"/>
<path d="M1882 3468 c-9 -9 -12 -114 -12 -410 l0 -398 26 -10 c15 -6 255 -10
612 -10 516 0 590 2 610 16 l22 15 0 388 c0 458 11 421 -123 421 -86 0 -88 -1
-116 -32 l-29 -33 96 -5 97 -5 0 -305 0 -305 -562 -3 -563 -2 0 310 0 310 328
0 328 0 22 30 c12 16 22 32 22 35 0 3 -168 5 -373 5 -277 0 -376 -3 -385 -12z"/>
<path d="M2333 3035 c-12 -8 -27 -30 -33 -49 -13 -41 -29 -56 -73 -67 -21 -6
1 -7 68 -5 105 3 151 16 160 47 8 25 -10 56 -45 74 -36 19 -50 19 -77 0z"/>
<path d="M4321 2984 c0 -11 3 -14 6 -6 3 7 2 16 -1 19 -3 4 -6 -2 -5 -13z"/>
<path d="M661 2954 c0 -11 3 -14 6 -6 3 7 2 16 -1 19 -3 4 -6 -2 -5 -13z"/>
<path d="M4331 2944 c0 -11 3 -14 6 -6 3 7 2 16 -1 19 -3 4 -6 -2 -5 -13z"/>
<path d="M651 2914 c0 -11 3 -14 6 -6 3 7 2 16 -1 19 -3 4 -6 -2 -5 -13z"/>
<path d="M641 2864 c0 -11 3 -14 6 -6 3 7 2 16 -1 19 -3 4 -6 -2 -5 -13z"/>
<path d="M2366 2554 c-4 -20 -18 -47 -31 -60 l-24 -24 191 0 191 0 -22 24
c-13 14 -26 40 -30 58 l-7 33 -131 3 -131 3 -6 -37z"/>
<path d="M4361 2194 c0 -11 3 -14 6 -6 3 7 2 16 -1 19 -3 4 -6 -2 -5 -13z"/>
<path d="M4352 2140 c0 -14 2 -19 5 -12 2 6 2 18 0 25 -3 6 -5 1 -5 -13z"/>
<path d="M2560 2120 c0 -18 7 -20 55 -20 l55 0 0 -180 0 -180 -55 0 c-52 0
-55 -1 -55 -25 l0 -25 136 0 c135 0 135 0 132 23 -3 19 -10 22 -55 25 l-53 3
0 200 0 199 -80 0 c-73 0 -80 -2 -80 -20z"/>
<path d="M1090 1905 l0 -215 25 0 25 0 0 100 0 100 90 0 90 0 0 -100 0 -100
25 0 25 0 0 215 0 215 -25 0 c-25 0 -25 0 -25 -95 l0 -96 -87 3 -88 3 -3 93
c-3 90 -3 92 -27 92 l-25 0 0 -215z"/>
<path d="M4342 2090 c0 -14 2 -19 5 -12 2 6 2 18 0 25 -3 6 -5 1 -5 -13z"/>
<path d="M651 2084 c0 -11 3 -14 6 -6 3 7 2 16 -1 19 -3 4 -6 -2 -5 -13z"/>
<path d="M1900 2050 l0 -40 -40 0 c-33 0 -40 -3 -40 -20 0 -17 7 -20 39 -20
l39 0 4 -114 c3 -105 5 -117 27 -140 21 -22 33 -26 80 -26 63 0 84 9 76 32 -5
12 -17 14 -48 11 -72 -8 -82 7 -82 129 l0 103 63 3 c54 3 62 6 62 22 0 18 -7
20 -65 20 l-65 0 0 40 c0 36 -2 40 -25 40 -22 0 -25 -4 -25 -40z"/>
<path d="M3350 2050 l0 -40 -40 0 c-33 0 -40 -3 -40 -20 0 -17 7 -20 39 -20
l39 0 4 -114 c3 -105 5 -117 27 -140 21 -22 33 -26 80 -26 63 0 84 9 76 32 -5
12 -17 14 -48 11 -72 -8 -82 7 -82 129 l0 103 63 3 c54 3 62 6 62 22 0 18 -7
20 -65 20 l-65 0 0 40 c0 36 -2 40 -25 40 -22 0 -25 -4 -25 -40z"/>
<path d="M661 2044 c0 -11 3 -14 6 -6 3 7 2 16 -1 19 -3 4 -6 -2 -5 -13z"/>
<path d="M671 2004 c0 -11 3 -14 6 -6 3 7 2 16 -1 19 -3 4 -6 -2 -5 -13z"/>
<path d="M1509 1983 c-60 -51 -76 -141 -39 -218 25 -52 64 -75 129 -75 41 0
56 5 84 30 56 49 71 133 38 206 -27 60 -63 84 -127 84 -42 0 -59 -5 -85 -27z
m142 -42 c33 -33 40 -79 24 -148 -13 -55 -85 -81 -132 -48 -50 35 -54 149 -8
199 33 36 78 35 116 -3z"/>
<path d="M2190 1790 l0 -220 25 0 c24 0 25 2 25 76 l0 75 22 -15 c13 -9 43
-16 71 -16 40 0 54 5 77 28 65 65 65 199 0 264 -23 23 -37 28 -75 28 -25 0
-57 -7 -70 -16 -23 -15 -25 -15 -25 0 0 10 -9 16 -25 16 l-25 0 0 -220z m181
151 c25 -26 29 -37 29 -86 0 -59 -19 -109 -45 -119 -32 -12 -75 -6 -95 14 -17
17 -20 33 -20 99 0 74 2 81 26 100 37 29 70 26 105 -8z"/>
<path d="M2968 1994 c-27 -14 -48 -42 -48 -63 0 -21 42 -11 62 14 28 36 89 35
118 -2 35 -45 24 -57 -59 -64 -67 -5 -77 -8 -102 -37 -39 -43 -38 -84 0 -123
25 -24 38 -29 78 -29 28 0 58 6 69 15 25 19 34 19 34 0 0 -10 10 -15 28 -15
l27 0 -3 117 c-3 134 -13 168 -53 188 -36 19 -116 19 -151 -1z m150 -181 c7
-75 -119 -116 -149 -49 -22 49 29 87 111 83 32 -2 35 -5 38 -34z"/>
<path d="M3691 1983 c-62 -49 -81 -150 -40 -223 28 -50 65 -70 131 -70 51 0
118 27 118 48 0 25 -24 30 -54 11 -58 -35 -124 -19 -151 36 -8 18 -15 36 -15
39 0 3 52 6 115 6 l115 0 0 30 c0 45 -29 108 -60 130 -42 30 -116 27 -159 -7z
m136 -35 c11 -13 23 -33 26 -45 5 -23 3 -23 -83 -23 l-89 0 11 30 c20 60 96
81 135 38z"/>
<path d="M1305 1418 c-26 -73 -33 -98 -25 -98 5 0 12 5 15 10 9 14 42 12 48
-2 2 -7 7 -11 10 -7 9 7 -25 109 -35 109 -5 0 -11 -6 -13 -12z m19 -43 c3 -8
1 -15 -4 -15 -6 0 -10 7 -10 15 0 8 2 15 4 15 2 0 6 -7 10 -15z"/>
<path d="M1562 1418 c-7 -7 -12 -26 -12 -43 0 -53 48 -76 70 -34 27 49 -22
113 -58 77z m43 -43 c0 -20 -6 -31 -17 -33 -15 -3 -18 4 -18 33 0 29 3 36 18
33 11 -2 17 -13 17 -33z"/>
<path d="M2023 1423 c-22 -8 -14 -43 12 -53 14 -5 25 -13 25 -18 0 -17 -13
-22 -27 -10 -16 13 -31 2 -16 -13 18 -18 58 -6 61 18 3 17 -3 26 -22 33 -34
13 -35 34 -1 26 27 -7 35 8 9 18 -18 7 -23 7 -41 -1z"/>
<path d="M2663 1423 c-22 -8 -14 -43 12 -53 14 -5 25 -13 25 -18 0 -17 -13
-22 -27 -10 -16 13 -31 2 -16 -13 18 -18 58 -6 61 18 3 17 -3 26 -22 33 -34
13 -35 34 -1 26 27 -7 35 8 9 18 -18 7 -23 7 -41 -1z"/>
<path d="M2770 1420 c0 -5 5 -10 10 -10 6 0 10 5 10 10 0 6 -4 10 -10 10 -5 0
-10 -4 -10 -10z"/>
<path d="M3100 1375 c0 -54 0 -55 29 -55 35 0 45 13 47 58 1 35 -17 52 -55 52
-19 0 -21 -6 -21 -55z m53 20 c1 -5 -6 -11 -15 -13 -11 -2 -18 3 -18 13 0 17
30 18 33 0z m5 -42 c2 -8 -5 -13 -17 -13 -12 0 -21 6 -21 16 0 18 31 15 38 -3z"/>
<path d="M3315 1420 c3 -5 8 -10 11 -10 2 0 4 5 4 10 0 6 -5 10 -11 10 -5 0
-7 -4 -4 -10z"/>
<path d="M3388 1423 c14 -6 17 -83 2 -83 -5 0 -10 -4 -10 -10 0 -5 17 -10 38
-10 33 1 35 2 20 14 -12 9 -18 27 -18 55 0 36 -3 41 -22 40 -13 0 -17 -3 -10
-6z"/>
<path d="M3520 1416 c0 -8 -10 -16 -22 -18 -19 -2 -23 -9 -23 -38 0 -32 2 -35
33 -37 l32 -1 0 54 c0 30 -4 54 -10 54 -5 0 -10 -6 -10 -14z m0 -57 c0 -10 -7
-19 -15 -19 -15 0 -21 31 -9 43 11 10 24 -3 24 -24z"/>
<path d="M2843 1406 c-6 -8 -8 -17 -3 -22 5 -5 10 -20 12 -34 2 -17 10 -26 26
-28 12 -2 22 1 22 7 0 6 -6 10 -12 9 -7 -2 -14 9 -16 24 -2 19 2 28 15 31 17
4 17 5 1 6 -10 0 -18 6 -18 11 0 14 -13 12 -27 -4z"/>
<path d="M1370 1359 c0 -47 17 -52 22 -6 2 17 8 32 13 32 6 0 11 -15 13 -32 2
-18 8 -33 13 -33 6 0 9 17 7 38 -3 34 -6 37 -35 39 -32 1 -33 0 -33 -38z"/>
<path d="M1650 1345 c0 -30 5 -55 10 -55 6 0 10 7 10 15 0 8 7 15 15 15 8 0
19 9 25 20 15 28 -4 60 -35 60 -24 0 -25 -3 -25 -55z m50 15 c0 -11 -7 -20
-15 -20 -8 0 -15 9 -15 20 0 11 7 20 15 20 8 0 15 -9 15 -20z"/>
<path d="M1740 1380 c-15 -28 4 -60 35 -60 14 0 25 5 25 11 0 6 -7 9 -15 6 -8
-4 -17 -2 -20 3 -4 6 3 10 14 10 26 0 36 17 21 35 -18 21 -47 18 -60 -5z m45
0 c3 -5 -1 -10 -10 -10 -9 0 -13 5 -10 10 3 6 8 10 10 10 2 0 7 -4 10 -10z"/>
<path d="M1830 1359 c0 -47 17 -52 22 -6 2 17 8 32 13 32 6 0 11 -15 13 -32 2
-18 8 -33 13 -33 6 0 9 17 7 38 -3 34 -6 37 -35 39 -32 1 -33 0 -33 -38z"/>
<path d="M2110 1385 c-24 -29 8 -75 44 -62 21 8 22 63 0 71 -23 9 -30 8 -44
-9z m40 -25 c0 -25 -18 -36 -26 -16 -8 21 3 49 16 41 5 -3 10 -15 10 -25z"/>
<path d="M2190 1373 c0 -39 11 -51 43 -51 25 0 27 4 27 39 0 47 -17 52 -22 7
-2 -18 -7 -33 -13 -33 -5 0 -11 15 -13 33 -4 39 -22 43 -22 5z"/>
<path d="M2290 1358 c0 -21 5 -38 10 -38 6 0 10 12 10 26 0 17 6 28 20 31 30
8 24 22 -10 21 -28 -1 -30 -4 -30 -40z"/>
<path d="M2382 1388 c-16 -16 -15 -43 3 -58 17 -14 47 -10 53 8 3 11 0 12 -17
3 -17 -10 -22 -9 -27 4 -3 8 -3 22 0 31 5 13 9 14 21 4 17 -14 31 -8 20 9 -8
15 -38 14 -53 -1z"/>
<path d="M2470 1380 c-15 -28 4 -60 35 -60 14 0 25 5 25 11 0 6 -7 9 -15 6 -8
-4 -17 -2 -20 3 -4 6 3 10 14 10 26 0 36 17 21 35 -18 21 -47 18 -60 -5z m45
0 c3 -5 -1 -10 -10 -10 -9 0 -13 5 -10 10 3 6 8 10 10 10 2 0 7 -4 10 -10z"/>
<path d="M2753 1386 c9 -7 17 -19 17 -26 0 -7 -8 -19 -17 -26 -16 -12 -13 -13
22 -14 30 0 36 3 27 12 -7 7 -12 25 -12 40 0 24 -4 28 -27 28 -25 -1 -26 -2
-10 -14z"/>
<path d="M2932 1388 c-25 -25 -7 -68 29 -68 10 0 21 5 25 11 4 7 0 9 -14 5
-11 -4 -23 -2 -27 4 -4 6 4 10 20 10 22 0 26 4 23 23 -3 25 -36 35 -56 15z
m33 -8 c3 -5 -1 -10 -10 -10 -9 0 -13 5 -10 10 3 6 8 10 10 10 2 0 7 -4 10
-10z"/>
<path d="M3190 1379 c0 -35 19 -59 45 -57 22 2 25 7 25 40 0 46 -18 51 -22 6
-2 -18 -7 -33 -13 -33 -5 0 -11 15 -13 33 -4 35 -22 45 -22 11z"/>
<path d="M3298 1388 c15 -15 16 -48 2 -48 -5 0 -10 -4 -10 -10 0 -5 17 -10 38
-10 33 1 35 2 20 14 -10 7 -18 25 -18 40 0 20 -5 26 -22 26 -17 0 -19 -3 -10
-12z"/>
<path d="M3573 1393 c-7 -2 -13 -18 -13 -34 0 -22 5 -30 26 -35 15 -4 30 -2
37 6 9 10 7 11 -10 6 -12 -4 -24 -2 -28 4 -4 6 4 10 19 10 28 0 34 18 14 38
-13 13 -24 14 -45 5z m32 -13 c3 -5 -1 -10 -10 -10 -9 0 -13 5 -10 10 3 6 8
10 10 10 2 0 7 -4 10 -10z"/>
<path d="M3660 1358 c0 -21 5 -38 10 -38 6 0 10 12 10 26 0 17 6 28 20 31 30
8 24 22 -10 21 -28 -1 -30 -4 -30 -40z"/>
<path d="M2163 4473 c9 -2 25 -2 35 0 9 3 1 5 -18 5 -19 0 -27 -2 -17 -5z"/>
<path d="M2108 4463 c6 -2 18 -2 25 0 6 3 1 5 -13 5 -14 0 -19 -2 -12 -5z"/>
<path d="M2058 4453 c6 -2 18 -2 25 0 6 3 1 5 -13 5 -14 0 -19 -2 -12 -5z"/>
<path d="M1259 4073 c-13 -16 -12 -17 4 -4 16 13 21 21 13 21 -2 0 -10 -8 -17
-17z"/>
<path d="M2968 553 c7 -3 16 -2 19 1 4 3 -2 6 -13 5 -11 0 -14 -3 -6 -6z"/>
<path d="M2918 543 c7 -3 16 -2 19 1 4 3 -2 6 -13 5 -11 0 -14 -3 -6 -6z"/>
<path d="M2868 533 c6 -2 18 -2 25 0 6 3 1 5 -13 5 -14 0 -19 -2 -12 -5z"/>
</g>
</svg>
